<?xml version="1.0" standalone="no"?>
<!DOCTYPE svg PUBLIC "-//W3C//DTD SVG 20010904//EN"
 "http://www.w3.org/TR/2001/REC-SVG-20010904/DTD/svg10.dtd">
<svg version="1.0" xmlns="http://www.w3.org/2000/svg"
 width="512.000000pt" height="512.000000pt" viewBox="0 0 512.000000 512.000000"
 preserveAspectRatio="xMidYMid meet">
<metadata>
Created by potrace 1.14, written by Peter Selinger 2001-2017
</metadata>
<g transform="translate(0.000000,512.000000) scale(0.100000,-0.100000)"
fill="#000000" stroke="none">
<path d="M2309 5116 c-2 -2 -39 -7 -81 -10 -239 -20 -525 -99 -768 -213 -368
-172 -647 -394 -925 -734 -90 -111 -225 -336 -305 -511 -48 -103 -142 -367
-154 -428 -2 -14 -9 -46 -15 -71 -15 -67 -40 -223 -48 -309 -15 -147 -8 -536
12 -650 2 -14 7 -43 10 -65 62 -437 274 -897 585 -1270 57 -68 250 -255 325
-314 44 -34 89 -70 100 -79 37 -30 199 -129 295 -180 277 -147 573 -236 900
-271 133 -14 478 -6 605 13 805 125 1464 607 1834 1342 148 294 230 570 266
889 23 207 19 533 -9 695 -3 14 -7 42 -10 63 -48 319 -190 682 -383 981 -271
420 -674 755 -1133 944 -187 77 -412 139 -575 158 -27 3 -61 8 -75 11 -29 5
-446 14 -451 9z m331 -380 c622 -44 1195 -395 1533 -940 141 -227 270 -560
302 -781 3 -23 7 -50 9 -60 2 -11 7 -47 10 -80 4 -33 9 -73 11 -90 5 -41 6
-381 1 -425 -3 -19 -7 -60 -11 -90 -31 -290 -126 -597 -254 -828 -71 -126 -83
-147 -129 -212 -244 -346 -570 -601 -952 -743 -86 -32 -279 -83 -348 -92 -122
-17 -178 -20 -322 -20 -167 0 -251 6 -350 24 -30 6 -70 13 -89 16 -19 3 -37 8
-41 10 -3 2 -18 6 -32 9 -65 11 -255 83 -367 138 -154 76 -345 203 -432 288
-9 8 -34 31 -55 51 -240 222 -425 515 -549 870 -47 132 -86 297 -101 424 -3
28 -8 61 -11 75 -9 43 -12 482 -3 545 5 33 11 83 15 110 38 296 169 642 347
912 39 60 73 110 77 113 3 3 28 32 55 65 259 316 651 563 1049 659 56 14 120
28 142 31 23 3 52 8 65 10 14 3 72 8 130 11 58 4 106 7 107 8 3 3 94 -1 193
-8z"/>
<path d="M1527 4046 c-2 -6 -3 -679 -3 -1496 l1 -1485 223 -1 222 -1 1 26 c0
14 0 304 1 644 l0 617 238 0 238 0 142 -232 c79 -128 150 -246 160 -263 15
-25 320 -528 349 -575 5 -8 38 -61 72 -116 l61 -102 239 0 238 0 -11 22 c-12
24 -219 358 -560 903 -131 210 -238 386 -238 392 0 6 12 11 28 11 37 0 175 36
242 62 328 130 471 349 474 723 2 207 -11 284 -69 427 -66 163 -199 291 -381
365 -71 29 -140 47 -304 78 -19 4 -333 9 -697 10 -489 2 -663 0 -666 -9z
m1223 -377 c241 -31 382 -130 433 -306 23 -77 16 -259 -13 -344 -37 -112 -126
-198 -249 -241 -109 -38 -201 -45 -582 -47 l-366 -2 -1 476 -1 475 352 -1
c194 0 386 -5 427 -10z"/>
</g>
</svg>
