<?xml version="1.0" standalone="no"?>
<!DOCTYPE svg PUBLIC "-//W3C//DTD SVG 20010904//EN"
 "http://www.w3.org/TR/2001/REC-SVG-20010904/DTD/svg10.dtd">
<svg version="1.0" xmlns="http://www.w3.org/2000/svg"
 width="512.000000pt" height="512.000000pt" viewBox="0 0 512.000000 512.000000"
 preserveAspectRatio="xMidYMid meet">
<metadata>
Created by potrace 1.14, written by Peter Selinger 2001-2017
</metadata>
<g transform="translate(0.000000,512.000000) scale(0.100000,-0.100000)"
fill="#000000" stroke="none">
<path d="M2300 4469 c-403 -46 -781 -225 -1078 -513 -501 -485 -695 -1203
-516 -1911 110 -434 399 -843 769 -1090 420 -281 915 -377 1415 -275 206 42
450 145 635 269 329 220 604 585 735 978 163 491 128 1045 -97 1503 -286 582
-833 971 -1465 1039 -111 13 -288 12 -398 0z m356 -280 c420 -42 814 -274
1063 -624 121 -171 226 -420 272 -640 26 -128 37 -449 20 -592 -47 -386 -205
-717 -466 -978 -218 -219 -449 -345 -755 -411 -128 -28 -458 -26 -591 3 -647
145 -1107 661 -1203 1352 -30 209 -17 512 29 694 149 588 561 1019 1110 1158
182 45 335 57 521 38z"/>
<path d="M1780 2561 l0 -1121 170 0 170 0 0 480 0 480 179 0 179 0 292 -480
293 -480 179 0 c175 0 179 0 168 20 -6 11 -143 233 -305 492 l-295 473 97 23
c246 57 395 190 449 402 25 96 23 300 -5 403 -55 209 -188 333 -426 399 -77
21 -99 22 -612 26 l-533 3 0 -1120z m935 829 c151 -22 242 -77 292 -178 26
-52 28 -67 28 -167 0 -100 -3 -115 -28 -167 -47 -95 -119 -145 -250 -172 -59
-12 -140 -16 -357 -16 l-280 0 0 355 0 355 263 0 c144 0 294 -5 332 -10z"/>
</g>
</svg>
